<?xml version="1.0" encoding="UTF-8"?>
<svg version="1.1" xmlns="http://www.w3.org/2000/svg" width="1024" height="1024">
<path d="M0 0 C2.42827039 0.84772455 4.00988193 1.9555033 6.02929688 3.54467773 C6.75632812 4.10993164 7.48335937 4.67518555 8.23242188 5.25756836 C8.98265625 5.85118164 9.73289062 6.44479492 10.50585938 7.05639648 C15.28618108 10.80347157 20.06340056 14.38929046 25.13085938 17.74389648 C29.22196899 20.71937399 33.26847005 23.75562185 37.31835938 26.78686523 C38.54425781 27.69758789 38.54425781 27.69758789 39.79492188 28.62670898 C40.53178223 29.1772998 41.26864258 29.72789062 42.02783203 30.29516602 C44.002957 31.65578728 45.95974156 32.73283371 48.13085938 33.74389648 C47.51485483 38.04792823 45.93608376 41.27421411 43.94335938 45.11889648 C27.94295035 78.01716672 29.31552095 117.33385577 40.81835938 151.30639648 C41.67959061 153.77397415 42.54846885 156.23788324 43.43823242 158.6953125 C44.13085938 160.74389648 44.13085938 160.74389648 44.59887695 162.94677734 C44.77443115 163.53982666 44.94998535 164.13287598 45.13085938 164.74389648 C45.79085937 165.07389648 46.45085937 165.40389648 47.13085938 165.74389648 C47.80220804 167.74232972 48.46754372 169.7427826 49.13085938 171.74389648 C50.5482157 174.79868195 52.11468731 177.76983379 53.69335938 180.74389648 C54.36044922 182.00302856 54.36044922 182.00302856 55.04101562 183.28759766 C69.85506519 210.88770811 90.41486165 235.454471 109.73974609 259.9777832 C112.03960175 262.89760697 114.33501882 265.82091542 116.63085938 268.74389648 C117.54750447 269.9105801 118.46417115 271.07724676 119.38085938 272.24389648 C124.88085938 279.24389648 130.38085938 286.24389648 135.88085938 293.24389648 C136.33493164 293.82179932 136.78900391 294.39970215 137.25683594 294.99511719 C138.17027617 296.15769224 139.08368779 297.32028977 139.99707031 298.48291016 C142.33786314 301.46236684 144.67920518 304.44138936 147.02148438 307.41967773 C152.07572346 313.84736066 157.12140428 320.2811865 162.13085938 326.74389648 C161.80085938 327.40389648 161.47085937 328.06389648 161.13085938 328.74389648 C120.15279889 328.81257868 79.17474592 328.86543344 38.19663937 328.89709247 C33.35765532 328.90084455 28.51867138 328.90472752 23.6796875 328.90869141 C22.71634203 328.90947834 21.75299657 328.91026527 20.76045881 328.91107605 C5.16670175 328.92412625 -10.42702209 328.94777799 -26.02075945 328.97535487 C-42.02404128 329.00341977 -58.02730573 329.02007504 -74.03061116 329.02616197 C-83.90371615 329.03027616 -93.77672726 329.0432657 -103.64980336 329.06764589 C-110.42220245 329.08351644 -117.19455308 329.08829385 -123.96696942 329.08440062 C-127.8729866 329.08248113 -131.77883984 329.08540211 -135.6848278 329.10151291 C-139.26538943 329.11617316 -142.84567773 329.11680946 -146.42625226 329.10659317 C-148.32565538 329.10473686 -150.22505556 329.1176206 -152.12441146 329.13114041 C-160.27942779 329.08859972 -167.66769615 328.30129747 -174.74414062 323.99389648 C-180.55897653 317.83701141 -181.97505896 311.84008153 -182.07687378 303.56587219 C-182.08690056 302.84193227 -182.09692734 302.11799234 -182.10725796 301.37211484 C-182.1393505 298.94570175 -182.164281 296.51927244 -182.18896484 294.09277344 C-182.209965 292.3531109 -182.23121129 290.61345131 -182.25268555 288.87379456 C-182.4403095 273.0020664 -182.5432265 257.12931486 -182.62483025 241.25672626 C-182.68642722 229.52704182 -182.79000937 217.79927244 -182.94752491 206.07047683 C-183.05461178 197.81898877 -183.11187973 189.56802798 -183.13296139 181.31587762 C-183.14702553 176.38885256 -183.1834005 171.46433864 -183.27419662 166.53808022 C-183.35879653 161.90042215 -183.38159975 157.26647841 -183.35783386 152.62814903 C-183.3598071 150.93049787 -183.38390531 149.23269932 -183.43227005 147.53573608 C-183.76977126 135.05305087 -183.76977126 135.05305087 -180.5895772 131.18930221 C-177.0619371 128.03225644 -173.06174766 125.91943716 -168.86914062 123.74389648 C-167.44398165 122.74844429 -166.03402796 121.72949934 -164.66210938 120.66186523 C-164.06454834 120.21125732 -163.4669873 119.76064941 -162.85131836 119.29638672 C-162.25907471 118.84593994 -161.66683105 118.39549316 -161.05664062 117.93139648 C-159.69729486 116.90531608 -158.33791897 115.87927559 -156.97851562 114.85327148 C-156.29982422 114.33958008 -155.62113281 113.82588867 -154.921875 113.29663086 C-144.65232895 105.52851563 -134.31909149 97.85140005 -123.92626953 90.24926758 C-110.01761601 80.09706941 -110.01761601 80.09706941 -96.30664062 69.68139648 C-90.64221736 65.29003804 -84.8494948 61.09849584 -79.02661133 56.92041016 C-68.75201439 49.53025124 -58.66756964 41.88396354 -48.57226562 34.25170898 C-42.05053082 29.33338412 -35.44458315 24.54219759 -28.81347656 19.77319336 C-22.18916344 14.99876235 -15.64614154 10.12148798 -9.12695312 5.20483398 C-8.55493164 4.77783203 -7.98291016 4.35083008 -7.39355469 3.91088867 C-6.11777431 2.93423425 -4.88913103 1.89641488 -3.67382812 0.84545898 C-1.86914062 -0.25610352 -1.86914062 -0.25610352 0 0 Z M-98.86914062 137.74389648 C-98.86914062 151.27389648 -98.86914062 164.80389648 -98.86914062 178.74389648 C-85.33914063 178.74389648 -71.80914062 178.74389648 -57.86914062 178.74389648 C-57.86914062 165.21389648 -57.86914062 151.68389648 -57.86914062 137.74389648 C-71.39914062 137.74389648 -84.92914063 137.74389648 -98.86914062 137.74389648 Z M-43.86914062 137.74389648 C-45.16393147 141.62826903 -44.9925098 145.30271765 -44.96679688 149.34936523 C-44.96578979 150.09335571 -44.96478271 150.83734619 -44.96374512 151.60388184 C-44.95851805 154.37973576 -44.94455677 157.15556769 -44.93164062 159.93139648 C-44.91101563 166.13952148 -44.89039063 172.34764648 -44.86914062 178.74389648 C-30.67914063 178.74389648 -16.48914063 178.74389648 -1.86914062 178.74389648 C-1.86914062 165.21389648 -1.86914062 151.68389648 -1.86914062 137.74389648 C-15.72914063 137.74389648 -29.58914063 137.74389648 -43.86914062 137.74389648 Z M-98.86914062 191.74389648 C-98.86914062 204.94389648 -98.86914062 218.14389648 -98.86914062 231.74389648 C-85.33914063 231.74389648 -71.80914062 231.74389648 -57.86914062 231.74389648 C-57.86914062 218.54389648 -57.86914062 205.34389648 -57.86914062 191.74389648 C-71.39914062 191.74389648 -84.92914063 191.74389648 -98.86914062 191.74389648 Z M-44.86914062 191.74389648 C-44.88976562 197.97264648 -44.91039062 204.20139648 -44.93164062 210.61889648 C-44.94074463 212.58455566 -44.94984863 214.55021484 -44.95922852 216.57543945 C-44.96214842 218.12898693 -44.9646968 219.68253518 -44.96679688 221.23608398 C-44.97191284 222.04634033 -44.97702881 222.85659668 -44.9822998 223.69140625 C-45.09498971 227.85035917 -45.09498971 227.85035917 -43.86914062 231.74389648 C-30.00914062 231.74389648 -16.14914062 231.74389648 -1.86914062 231.74389648 C-1.86914062 218.54389648 -1.86914062 205.34389648 -1.86914062 191.74389648 C-16.05914062 191.74389648 -30.24914062 191.74389648 -44.86914062 191.74389648 Z " fill="#0280D6" transform="translate(448.869140625,371.256103515625)"/>
<path d="M0 0 C0.75845215 0.00193359 1.5169043 0.00386719 2.29833984 0.00585938 C10.73554255 0.06824165 19.145661 0.56785699 27.5625 1.125 C27.5625 1.785 27.5625 2.445 27.5625 3.125 C28.84125 3.228125 30.12 3.33125 31.4375 3.4375 C36.71952411 4.03172771 41.53942765 5.42554209 46.5625 7.125 C47.47459229 7.43332764 48.38668457 7.74165527 49.32641602 8.05932617 C70.40693044 15.45834983 88.05258412 28.1958972 103.5625 44.125 C104.04589844 44.55167969 104.52929688 44.97835937 105.02734375 45.41796875 C126.18263517 64.78128255 138.1999019 97.4570254 139.6887207 125.50268555 C141.22684488 174.04393144 116.15593521 215.22152941 89.5625 254.125 C88.57539033 255.57803635 87.58842255 257.0311691 86.6015625 258.484375 C79.3695947 269.11294463 72.02666348 279.65831656 64.5625 290.125 C63.80549805 291.18920166 63.80549805 291.18920166 63.03320312 292.27490234 C55.37218977 303.02978648 47.46423874 313.57737821 39.43359375 324.05859375 C35.94196373 328.61780539 32.4959902 333.20944437 29.0625 337.8125 C25.75446644 342.22761552 22.44487557 346.6414609 19.0625 351 C18.4746875 351.76054688 17.886875 352.52109375 17.28125 353.3046875 C15.44340928 355.2511279 14.06987858 356.21014565 11.5625 357.125 C6.37693822 357.04136191 3.06485712 356.55322513 -0.83984375 352.8671875 C-4.07714219 349.33702832 -7.05739946 345.60842233 -10.04052734 341.86328125 C-12.15280372 339.23493315 -14.30596577 336.64085446 -16.45581055 334.04321289 C-25.9809212 322.53246208 -35.30325985 310.86913962 -44.51123047 299.10375977 C-47.2145176 295.65723903 -49.95984816 292.25201034 -52.75 288.875 C-57.30400118 283.34514142 -61.68719357 277.68900349 -66.0690918 272.02270508 C-69.36237928 267.7704052 -72.69205219 263.55480226 -76.08520508 259.38183594 C-85.56882982 247.7024488 -94.08540619 235.35547372 -102.31689453 222.76953125 C-103.90186644 220.35636982 -105.38962657 218.17287343 -107.4375 216.125 C-109.92957715 213.63292285 -110.3460274 211.46022408 -111.4375 208.125 C-112.33819072 206.29640535 -113.28297176 204.48901267 -114.265625 202.703125 C-123.76187034 185.15051331 -130.45640641 168.85805983 -133.4375 149.125 C-133.56898438 148.32191406 -133.70046875 147.51882813 -133.8359375 146.69140625 C-138.1688183 115.71716378 -129.03335681 82.13475914 -110.68359375 57.04296875 C-109.94238281 56.08003906 -109.20117188 55.11710937 -108.4375 54.125 C-107.70660156 53.17238281 -106.97570312 52.21976562 -106.22265625 51.23828125 C-82.82173989 21.75065906 -49.93607171 5.04133569 -12.87109375 0.52734375 C-8.5730063 0.08573376 -4.31831058 -0.027362 0 0 Z M-41.4375 85.125 C-41.4375 85.785 -41.4375 86.445 -41.4375 87.125 C-42.30761719 87.46917969 -42.30761719 87.46917969 -43.1953125 87.8203125 C-51.8209821 92.83943035 -57.65853405 106.31818662 -60.47265625 115.50390625 C-64.97611127 134.2508469 -62.22066066 151.61966759 -52.4375 168.125 C-50.29829846 171.29721637 -48.15260911 174.41705477 -45.4375 177.125 C-44.7775 177.125 -44.1175 177.125 -43.4375 177.125 C-43.4375 177.785 -43.4375 178.445 -43.4375 179.125 C-41.53186916 180.66707647 -39.64698395 182.06242678 -37.625 183.4375 C-37.03404541 183.84049316 -36.44309082 184.24348633 -35.83422852 184.65869141 C-20.05207824 195.18012492 -1.98631933 198.85619138 16.7265625 195.46875 C33.22885944 191.50546544 48.16406392 182.27431773 57.77734375 168.140625 C63.18348084 159.00815709 66.65420175 149.71235148 67.5625 139.125 C67.645 138.18398438 67.7275 137.24296875 67.8125 136.2734375 C68.51056372 120.08708501 62.32620606 103.86457175 51.94921875 91.5703125 C38.59427518 77.88750616 22.04216606 70.20172351 2.9140625 69.12890625 C-13.20443381 69.11012012 -29.03395334 74.71839622 -41.4375 85.125 Z " fill="#FA212D" transform="translate(630.4375,342.875)"/>
<path d="M0 0 C1.45672464 1.18083233 2.89911605 2.37952387 4.328125 3.59375 C5.90183889 4.8746191 7.47737731 6.15324963 9.0546875 7.4296875 C9.82200195 8.05713867 10.58931641 8.68458984 11.37988281 9.33105469 C14.40200874 11.75439423 17.52827618 14.00145359 20.703125 16.21875 C26.30866197 20.16270036 31.80517905 24.23382026 37.27709961 28.36083984 C42.41074783 32.22894998 47.58224063 36.0426372 52.765625 39.84375 C59.83100347 45.03547318 66.84693593 50.28934605 73.828125 55.59375 C74.69719482 56.25213867 75.56626465 56.91052734 76.46166992 57.58886719 C81.30543871 61.28124445 85.99579837 65.08111803 90.578125 69.09375 C88.06497927 71.68525662 85.52633173 73.99058525 82.640625 76.15625 C78.56784948 79.28029245 74.62076408 82.52916138 70.703125 85.84375 C70.14375244 86.31562744 69.58437988 86.78750488 69.00805664 87.27368164 C66.86683002 89.09208417 64.76859195 90.89566437 62.8203125 92.921875 C61.578125 94.09375 61.578125 94.09375 59.578125 94.09375 C59.578125 94.75375 59.578125 95.41375 59.578125 96.09375 C57.203125 98.71875 57.203125 98.71875 54.578125 101.09375 C53.918125 101.09375 53.258125 101.09375 52.578125 101.09375 C52.26875 101.9290625 52.26875 101.9290625 51.953125 102.78125 C50.02811726 106.01876302 47.53961598 107.77606141 44.578125 110.09375 C44.248125 109.43375 43.918125 108.77375 43.578125 108.09375 C42.26081328 107.39595915 40.92482269 106.73298981 39.578125 106.09375 C38.37951907 105.318944 37.19741747 104.51813323 36.03125 103.6953125 C35.359729 103.22230713 34.68820801 102.74930176 33.99633789 102.26196289 C32.92307251 101.49807251 32.92307251 101.49807251 31.828125 100.71875 C30.6997522 99.91908813 30.6997522 99.91908813 29.54858398 99.10327148 C23.86320421 95.05469108 18.26639327 90.89780689 12.69946289 86.68847656 C7.43579672 82.71516093 2.11384887 78.8273913 -3.234375 74.96875 C-4.39151001 74.13355835 -4.39151001 74.13355835 -5.57202148 73.28149414 C-8.4979468 71.17536484 -11.42175373 69.09383084 -14.421875 67.09375 C-15.21207031 67.72539062 -16.00226563 68.35703125 -16.81640625 69.0078125 C-24.74643187 75.30856092 -32.81366861 81.38724025 -41.02270508 87.32080078 C-44.78233315 90.05742478 -48.1481864 92.78234609 -51.421875 96.09375 C-52.75384766 96.76313111 -54.08735185 97.42946829 -55.421875 98.09375 C-56.71114968 98.963618 -57.9798826 99.86443619 -59.23046875 100.7890625 C-60.33551758 101.60383057 -60.33551758 101.60383057 -61.46289062 102.43505859 C-62.25373047 103.02367676 -63.04457031 103.61229492 -63.859375 104.21875 C-65.10170898 105.13841553 -65.10170898 105.13841553 -66.36914062 106.07666016 C-73.67639557 111.50244725 -80.91265891 117.02026406 -88.14208984 122.54907227 C-93.19573831 126.41066255 -98.28129851 130.21260928 -103.4453125 133.92578125 C-109.45208854 138.3007953 -115.37426227 142.79046833 -121.3125 147.2578125 C-124.56361926 149.70289955 -127.82301386 152.13590957 -131.09375 154.5546875 C-131.81602783 155.09061523 -132.53830566 155.62654297 -133.2824707 156.17871094 C-134.62232964 157.17222571 -135.96445605 158.16269328 -137.30932617 159.14941406 C-140.1311991 161.24706283 -142.62523575 163.29858652 -145.11328125 165.8046875 C-147.28047176 167.95354306 -148.74401759 168.79128039 -151.421875 170.09375 C-152.63637965 170.89271781 -153.83259324 171.71999836 -155.01171875 172.5703125 C-155.70265625 173.06789063 -156.39359375 173.56546875 -157.10546875 174.078125 C-158.22115234 174.89023437 -158.22115234 174.89023437 -159.359375 175.71875 C-160.14570313 176.28851563 -160.93203125 176.85828125 -161.7421875 177.4453125 C-168.77519968 182.56826015 -175.68621534 187.8455067 -182.59033203 193.14013672 C-188.95840659 198.01190694 -195.41007902 202.74864669 -201.9296875 207.41503906 C-207.84582916 211.65494059 -213.67644637 216.00070007 -219.47387695 220.40136719 C-224.04099901 223.85731193 -226.51637123 225.51598417 -232.38671875 225.44140625 C-235.88789716 224.84331627 -237.35208137 222.83318275 -239.421875 220.09375 C-241.05482507 216.63437714 -241.67832274 213.87643371 -241.71240234 210.06323242 C-241.72516205 209.08839401 -241.73792175 208.1135556 -241.75106812 207.10917664 C-241.75329376 206.06639053 -241.75551941 205.02360443 -241.7578125 203.94921875 C-241.7644693 202.86546463 -241.7711261 201.78171051 -241.77798462 200.66511536 C-241.78809782 198.37466119 -241.79280205 196.08417764 -241.79248047 193.79370117 C-241.7968465 190.30402589 -241.83316226 186.81562296 -241.87109375 183.32617188 C-241.87696371 181.09635847 -241.8809319 178.86653909 -241.8828125 176.63671875 C-241.90436905 175.08164864 -241.90436905 175.08164864 -241.92636108 173.49516296 C-241.88014138 166.1017128 -240.63346708 160.81318849 -235.66796875 155.0625 C-235.07113281 154.5778125 -234.47429687 154.093125 -233.859375 153.59375 C-232.82490234 152.74683594 -232.82490234 152.74683594 -231.76953125 151.8828125 C-228.2133972 149.1728135 -224.60263245 146.54444981 -220.96484375 143.9453125 C-218.93995528 142.47096974 -217.01051886 140.97045052 -215.109375 139.34375 C-212.89550695 137.49027907 -210.66506883 135.9267173 -208.26147461 134.34277344 C-204.37978658 131.70724378 -200.63145146 128.88269439 -196.859375 126.09375 C-196.02212891 125.47757813 -195.18488281 124.86140625 -194.32226562 124.2265625 C-187.08686703 119.00106968 -187.08686703 119.00106968 -180.421875 113.09375 C-175.80649038 110.09375 -175.80649038 110.09375 -173.421875 110.09375 C-173.421875 109.43375 -173.421875 108.77375 -173.421875 108.09375 C-171.74121114 106.85823494 -169.99822749 105.70728171 -168.234375 104.59375 C-163.19976349 101.32154625 -158.43418971 97.86191572 -153.70239258 94.15820312 C-149.0258157 90.51743346 -144.2392243 87.04543644 -139.421875 83.59375 C-133.15033307 79.09498305 -126.99270091 74.49436659 -120.8984375 69.7578125 C-115.78706185 65.81266873 -110.56356729 62.01707106 -105.35961914 58.19555664 C-101.0305339 55.01616147 -96.71230779 51.82511383 -92.421875 48.59375 C-87.44793969 44.84948203 -82.43811707 41.15597155 -77.421875 37.46875 C-70.72752492 32.54674779 -64.0634212 27.58674986 -57.421875 22.59375 C-54.92804967 20.72234323 -52.4336985 18.85164103 -49.93896484 16.98144531 C-48.23798746 15.70579477 -46.53781233 14.42907389 -44.83837891 13.15136719 C-42.30790376 11.25147899 -39.77183831 9.35929075 -37.234375 7.46875 C-36.48091797 6.90091797 -35.72746094 6.33308594 -34.95117188 5.74804688 C-23.92919827 -2.43270686 -12.70806859 -9.35535058 0 0 Z " fill="#FE7C2B" transform="translate(461.421875,278.90625)"/>
<path d="M0 0 C3.71655106 3.57668086 6.97671197 7.34887411 10.125 11.4375 C11.09626402 12.68626803 12.0676208 13.93496393 13.0390625 15.18359375 C13.53051758 15.81765137 14.02197266 16.45170898 14.52832031 17.10498047 C16.83901995 20.08037041 19.17002229 23.03970025 21.5 26 C22.41677461 27.16658184 23.33344103 28.33324872 24.25 29.5 C24.70375 30.0775 25.1575 30.655 25.625 31.25 C34.33333333 42.33333333 43.04166667 53.41666667 51.75 64.5 C52.20407227 65.07790283 52.65814453 65.65580566 53.12597656 66.2512207 C54.03941679 67.41379575 54.95282842 68.57639328 55.86621094 69.73901367 C58.20700377 72.71847036 60.54834581 75.69749287 62.890625 78.67578125 C67.94486408 85.10346418 72.99054491 91.53729002 78 98 C77.67 98.66 77.34 99.32 77 100 C-25.3 100 -127.6 100 -233 100 C-233.33 99.34 -233.66 98.68 -234 98 C-232.86630981 97.7980603 -232.86630981 97.7980603 -231.7097168 97.59204102 C-199.42010521 91.76758019 -168.04654086 83.60367681 -137 73 C-135.2363208 72.40300293 -135.2363208 72.40300293 -133.43701172 71.79394531 C-96.70264729 59.29146198 -61.84637586 43.55750703 -28.56201172 23.53955078 C-26.24730875 22.14861149 -23.92497964 20.77202285 -21.59765625 19.40234375 C-13.89042336 14.85126163 -6.38949646 10.05017728 1 5 C0.67 3.35 0.34 1.7 0 0 Z " fill="#014E90" transform="translate(533,600)"/>
<path d="M0 0 C1.45672464 1.18083233 2.89911605 2.37952387 4.328125 3.59375 C5.90183889 4.8746191 7.47737731 6.15324963 9.0546875 7.4296875 C9.82200195 8.05713867 10.58931641 8.68458984 11.37988281 9.33105469 C14.40200874 11.75439423 17.52827618 14.00145359 20.703125 16.21875 C26.30866197 20.16270036 31.80517905 24.23382026 37.27709961 28.36083984 C42.41074783 32.22894998 47.58224063 36.0426372 52.765625 39.84375 C59.83100347 45.03547318 66.84693593 50.28934605 73.828125 55.59375 C74.69719482 56.25213867 75.56626465 56.91052734 76.46166992 57.58886719 C81.30543871 61.28124445 85.99579837 65.08111803 90.578125 69.09375 C88.06497927 71.68525662 85.52633173 73.99058525 82.640625 76.15625 C78.56784948 79.28029245 74.62076408 82.52916138 70.703125 85.84375 C70.14375244 86.31562744 69.58437988 86.78750488 69.00805664 87.27368164 C66.86683002 89.09208417 64.76859195 90.89566437 62.8203125 92.921875 C61.578125 94.09375 61.578125 94.09375 59.578125 94.09375 C59.578125 94.75375 59.578125 95.41375 59.578125 96.09375 C57.203125 98.71875 57.203125 98.71875 54.578125 101.09375 C53.918125 101.09375 53.258125 101.09375 52.578125 101.09375 C52.371875 101.650625 52.165625 102.2075 51.953125 102.78125 C50.02811726 106.01876302 47.53961598 107.77606141 44.578125 110.09375 C44.248125 109.43375 43.918125 108.77375 43.578125 108.09375 C42.26081328 107.39595915 40.92482269 106.73298981 39.578125 106.09375 C38.37951907 105.318944 37.19741747 104.51813323 36.03125 103.6953125 C35.359729 103.22230713 34.68820801 102.74930176 33.99633789 102.26196289 C33.28082764 101.75270264 32.56531738 101.24344238 31.828125 100.71875 C31.07587646 100.18564209 30.32362793 99.65253418 29.54858398 99.10327148 C23.86320421 95.05469108 18.26639327 90.89780689 12.69946289 86.68847656 C7.43579672 82.71516093 2.11384887 78.8273913 -3.234375 74.96875 C-4.39151001 74.13355835 -4.39151001 74.13355835 -5.57202148 73.28149414 C-8.4979468 71.17536484 -11.42175373 69.09383084 -14.421875 67.09375 C-15.21207031 67.72539062 -16.00226563 68.35703125 -16.81640625 69.0078125 C-24.74643187 75.30856092 -32.81366861 81.38724025 -41.02270508 87.32080078 C-44.78219265 90.05732251 -48.14842288 92.78114176 -51.421875 96.09375 C-52.906875 96.58875 -52.906875 96.58875 -54.421875 97.09375 C-55.081875 96.76375 -55.741875 96.43375 -56.421875 96.09375 C-48.64481324 89.7374976 -40.63998249 83.71288159 -32.58886719 77.7109375 C-28.86117477 74.92902734 -25.14202069 72.13573898 -21.421875 69.34375 C-20.0677457 68.32807518 -18.71358259 67.31244544 -17.359375 66.296875 C-16.39 65.56984375 -15.420625 64.8428125 -14.421875 64.09375 C-10.421875 66.76041667 -6.421875 69.42708333 -2.421875 72.09375 C-2.421875 72.75375 -2.421875 73.41375 -2.421875 74.09375 C-1.70386719 74.34511719 -0.98585938 74.59648437 -0.24609375 74.85546875 C2.83807799 76.20772662 5.10818996 77.83935608 7.765625 79.90625 C14.53376834 85.08484175 21.41977864 90.08437889 28.34765625 95.046875 C30.84933944 96.83909258 33.33016813 98.64974329 35.77734375 100.515625 C36.63972656 101.16015625 37.50210938 101.8046875 38.390625 102.46875 C39.09832031 103.01273437 39.80601562 103.55671875 40.53515625 104.1171875 C42.54974467 105.24387931 42.54974467 105.24387931 44.89453125 105.1953125 C49.07683229 103.47856011 51.64495432 100.35116277 54.703125 97.09375 C60.69165213 90.9083278 66.78444033 85.39222194 73.578125 80.09375 C75.60404165 78.47509188 77.62493501 76.85012556 79.640625 75.21875 C80.53910156 74.49945313 81.43757812 73.78015625 82.36328125 73.0390625 C84.75709849 71.1059852 84.75709849 71.1059852 86.578125 68.09375 C85.56234375 67.33191406 84.5465625 66.57007813 83.5 65.78515625 C82.8402417 65.29031738 82.1804834 64.79547852 81.50073242 64.28564453 C80.03482723 63.18625682 78.56884231 62.08697541 77.1027832 60.98779297 C73.90396206 58.58928738 70.70584837 56.18990861 67.51171875 53.78515625 C60.6586101 48.62826511 53.75758399 43.5389106 46.84838867 38.45751953 C41.09143663 34.21950272 35.36421541 29.94400145 29.65307617 25.64453125 C23.57362324 21.07449641 17.4482775 16.56757073 11.31054688 12.07617188 C6.68784485 8.6840595 2.16390641 5.205216 -2.28344727 1.58520508 C-7.01524547 -1.71500673 -11.7131669 -2.72787715 -17.421875 -1.90625 C-24.31156256 0.23688872 -29.93492851 5.348083 -35.55664062 9.67333984 C-39.16537639 12.42145826 -42.8287141 15.09607251 -46.484375 17.78125 C-48.11339337 18.97901419 -49.74229782 20.17693333 -51.37109375 21.375 C-52.19657715 21.98214844 -53.02206055 22.58929688 -53.87255859 23.21484375 C-56.48245166 25.13839643 -59.08747906 27.0683805 -61.69140625 29 C-62.54661865 29.63333252 -63.40183105 30.26666504 -64.28295898 30.91918945 C-65.92049286 32.13211272 -67.55678797 33.34671078 -69.19165039 34.56323242 C-72.84281647 37.26432799 -76.45801785 39.85914527 -80.421875 42.09375 C-79.04026726 38.8362581 -77.60214374 37.18601686 -74.73828125 35.1328125 C-73.98514648 34.5860083 -73.23201172 34.0392041 -72.45605469 33.47583008 C-71.64040039 32.89599365 -70.82474609 32.31615723 -69.984375 31.71875 C-68.25113488 30.46507489 -66.51806679 29.2111619 -64.78515625 27.95703125 C-63.89521973 27.31717285 -63.0052832 26.67731445 -62.08837891 26.01806641 C-57.92522419 23.01367294 -53.80017693 19.95824766 -49.671875 16.90625 C-48.10044895 15.74974379 -46.52883696 14.59349017 -44.95703125 13.4375 C-41.99891649 11.26002511 -39.04890967 9.0722641 -36.10546875 6.875 C-35.4290332 6.37250732 -34.75259766 5.87001465 -34.05566406 5.35229492 C-32.80612358 4.42391706 -31.55914287 3.49207827 -30.31542969 2.5559082 C-20.50294399 -4.71296629 -10.53008508 -7.7519756 0 0 Z " fill="#FA6414" transform="translate(461.421875,278.90625)"/>
<path d="M0 0 C2.5 2.3125 2.5 2.3125 5 5 C5 5.99 5 6.98 5 8 C-97.3 8 -199.6 8 -305 8 C-305.33 7.34 -305.66 6.68 -306 6 C-299.58195435 4.84455896 -293.27763943 4.86321522 -286.76905823 4.87974548 C-285.53801155 4.87889106 -284.30696486 4.87803663 -283.03861374 4.87715632 C-279.63393546 4.87579677 -276.229315 4.8789115 -272.82464373 4.88393438 C-269.14852249 4.88826085 -265.47240298 4.88679089 -261.79627991 4.8860321 C-255.4312199 4.88550826 -249.06617017 4.88864048 -242.70111275 4.89426994 C-233.49835719 4.90240386 -224.29560658 4.9050021 -215.09284782 4.90625793 C-200.16126097 4.90844548 -185.22967958 4.91509751 -170.2980957 4.92456055 C-155.79516629 4.93374235 -141.29223837 4.94081943 -126.78930664 4.94506836 C-125.44791723 4.94546244 -125.44791723 4.94546244 -124.07942904 4.94586449 C-119.59310211 4.94716955 -115.10677518 4.94843325 -110.62044823 4.94967639 C-73.41362829 4.96003974 -36.20681457 4.97764998 1 5 C0.67 3.35 0.34 1.7 0 0 Z " fill="#033E77" transform="translate(605,692)"/>
<path d="M0 0 C13.76136814 5.83161116 23.74546953 26.75535403 29.203125 40.00488281 C43.18412231 75.00877681 41.84761879 110.72731181 27.22265625 145.296875 C17.02706783 168.29858266 3.17422547 190.2590442 -11 211 C-12.05745602 212.55848224 -13.11473259 214.11708626 -14.171875 215.67578125 C-15.3224941 217.36747499 -16.4735372 219.05888042 -17.625 220.75 C-18.43300049 221.93903931 -18.43300049 221.93903931 -19.25732422 223.15209961 C-22.70998125 228.20313064 -26.28596673 233.13793222 -30 238 C-30.66 237.67 -31.32 237.34 -32 237 C-31.47212891 236.23091309 -31.47212891 236.23091309 -30.93359375 235.44628906 C-21.79999042 222.14103105 -21.79999042 222.14103105 -12.81640625 208.734375 C-11.58627265 206.88256098 -10.34366381 205.03898423 -9.08984375 203.203125 C-4.2691526 196.11105453 0.1294907 188.8299369 4.42578125 181.4140625 C6.09625532 178.5317504 7.79996469 175.67494681 9.54296875 172.8359375 C15.98586691 162.27705454 21.19943072 151.39388226 26 140 C26.5053125 138.8140625 27.010625 137.628125 27.53125 136.40625 C34.76082749 118.59680302 36.39382876 101.04741197 36 82 C35.98324219 80.90816406 35.96648437 79.81632812 35.94921875 78.69140625 C35.2475578 62.9541536 29.87561615 48.01784548 23 34 C22.45472656 32.86949219 21.90945313 31.73898437 21.34765625 30.57421875 C17.11567859 22.25962734 11.80191249 15.24048192 6 8 C4.78423919 6.4014551 3.5745509 4.79824448 2.375 3.1875 C1.59125 2.135625 0.8075 1.08375 0 0 Z " fill="#F80F14" transform="translate(731,386)"/>
<path d="M0 0 C2.85657302 2.85657302 3.46920541 6.34984641 4.625 10.125 C7.55689821 19.26857791 11.41402351 27.58204765 16 36 C16.5559082 37.02552979 16.5559082 37.02552979 17.12304688 38.07177734 C29.55891085 60.88680471 44.95467861 81.61624407 61 102 C61.80695312 103.03125 62.61390625 104.0625 63.4453125 105.125 C68.78126714 111.93918446 74.16522942 118.71245228 79.58642578 125.45898438 C82.80263097 129.47220834 85.95153505 133.5298592 89.0625 137.625 C93.04386494 142.85580141 97.22126733 147.87039361 101.59790039 152.77587891 C105 156.67544081 105 156.67544081 105 160 C100.81283233 156.70448818 97.6247234 153.50549484 94.4375 149.1875 C93.57239106 148.03229465 92.70509558 146.87872442 91.8359375 145.7265625 C91.15096191 144.81825684 91.15096191 144.81825684 90.45214844 143.89160156 C87.89300045 140.55799722 85.22502622 137.31368798 82.5625 134.0625 C77.91515525 128.37612031 73.33137564 122.64653397 68.80834961 116.86083984 C66.27157253 113.61602793 63.71317519 110.39165007 61.125 107.1875 C48.11595088 90.94605986 34.93188243 74.40270268 24.5859375 56.30859375 C23.14442355 53.71320272 23.14442355 53.71320272 20 53 C19.89655273 52.29673584 19.79310547 51.59347168 19.68652344 50.86889648 C18.90074177 47.58521213 17.62172069 45.06704929 16.015625 42.09765625 C15.10683594 40.38932617 15.10683594 40.38932617 14.1796875 38.64648438 C12.91344649 36.28979774 11.64067997 33.93677493 10.3671875 31.58398438 C-0.46331226 11.191113 -0.46331226 11.191113 0 0 Z " fill="#F00F1A" transform="translate(501,505)"/>
<path d="M0 0 C0.99 0.495 0.99 0.495 2 1 C2.6029161 2.8982903 3.13107923 4.82047774 3.625 6.75 C5.94676039 14.68779213 9.81237029 22.82173859 15.74609375 28.7421875 C17 30 17 30 17 32 C17.66 32 18.32 32 19 32 C19 32.66 19 33.32 19 34 C19.556875 34.26167969 20.11375 34.52335938 20.6875 34.79296875 C23.25906133 36.13521951 25.59150031 37.69608131 28 39.3125 C43.5186437 49.24443197 61.00238389 52.64426717 79.17578125 49.34765625 C94.9503554 45.53096282 110.33144963 36.77189535 119.36328125 22.97265625 C122.72308571 16.87048156 125.3700316 10.44302289 128 4 C128.33 4 128.66 4 129 4 C129.59503353 12.55037314 124.85622937 20.71629194 119.484375 27.1796875 C117.05428565 29.86442693 114.57472824 32.45424781 112 35 C110.78763672 36.26650391 110.78763672 36.26650391 109.55078125 37.55859375 C96.53198447 50.01915729 79.79864579 53.47107187 62.34375 53.43164062 C45.54605964 53.02545622 29.31630716 46.38104489 17.1875 34.75 C7.8108954 24.88700093 0.87129596 13.7229113 0 0 Z " fill="#FA1219" transform="translate(568,488)"/>
<path d="M0 0 C0.99 0.495 0.99 0.495 2 1 C-3.00902575 5.41428655 -8.17997816 9.39196357 -13.625 13.25 C-20.03152134 17.83147194 -26.31986037 22.51485056 -32.5390625 27.34765625 C-37.55182536 31.2165572 -42.67426349 34.93876109 -47.77880859 38.68505859 C-52.89866356 42.44477711 -57.9913833 46.2373673 -63.0625 50.0625 C-69.49828729 54.91222417 -76.01525766 59.64194464 -82.55737305 64.34692383 C-88.76741815 68.81775152 -94.89689224 73.38398751 -101 78 C-102.91603308 79.43834439 -104.83271669 80.87582256 -106.75 82.3125 C-110.0501096 84.78651213 -113.34897842 87.26210925 -116.64453125 89.7421875 C-117.95044691 90.72405666 -119.2564384 91.70582497 -120.5625 92.6875 C-121.22193604 93.18362793 -121.88137207 93.67975586 -122.56079102 94.19091797 C-126.37770988 97.0557596 -130.21329935 99.89245254 -134.0703125 102.703125 C-135.34733032 103.63572144 -135.34733032 103.63572144 -136.65014648 104.5871582 C-138.3031566 105.79260068 -139.95879618 106.99444822 -141.61743164 108.19213867 C-145.76270339 111.21739961 -149.49187823 114.25268811 -153 118 C-154 119 -155 120 -156 121 C-155.51003662 116.70168493 -154.40751843 114.96187056 -151.125 112.1875 C-150.31675781 111.50429688 -149.50851563 110.82109375 -148.67578125 110.1171875 C-145.03300763 107.23487611 -141.29190789 104.50954378 -137.5078125 101.81640625 C-135.49165072 100.35610216 -133.57663644 98.86714036 -131.6875 97.25 C-129.47363195 95.39652907 -127.24319383 93.8329673 -124.83959961 92.24902344 C-120.95791158 89.61349378 -117.20957646 86.78894439 -113.4375 84 C-112.60025391 83.38382812 -111.76300781 82.76765625 -110.90039062 82.1328125 C-103.66499203 76.90731968 -103.66499203 76.90731968 -97 71 C-92.38461538 68 -92.38461538 68 -90 68 C-90 67.34 -90 66.68 -90 66 C-88.31933614 64.76448494 -86.57635249 63.61353171 -84.8125 62.5 C-79.77788849 59.22779625 -75.01231471 55.76816572 -70.28051758 52.06445312 C-65.6039407 48.42368346 -60.8173493 44.95168644 -56 41.5 C-49.72845807 37.00123305 -43.57082591 32.40061659 -37.4765625 27.6640625 C-32.37678638 23.72787166 -27.16559441 19.9402645 -21.97290039 16.12817383 C-16.36945876 12.01384582 -10.79616944 7.86301441 -5.25 3.671875 C-3.53586316 2.3981761 -1.77688504 1.18459003 0 0 Z " fill="#FC6813" transform="translate(378,321)"/>
<path d="M0 0 C0.78552246 0.00644531 1.57104492 0.01289063 2.38037109 0.01953125 C10.91310022 0.1279479 19.42448964 0.62399104 27.9375 1.1875 C27.9375 1.8475 27.9375 2.5075 27.9375 3.1875 C29.21625 3.290625 30.495 3.39375 31.8125 3.5 C37.09452411 4.09422771 41.91442765 5.48804209 46.9375 7.1875 C48.30563843 7.64999146 48.30563843 7.64999146 49.70141602 8.12182617 C67.44122971 14.34830142 86.31178342 24.96175021 98.9375 39.1875 C98.9375 40.1775 98.9375 41.1675 98.9375 42.1875 C98.40382813 41.69121094 97.87015625 41.19492187 97.3203125 40.68359375 C92.61987019 36.39789635 87.83816214 32.51557571 82.5625 28.9609375 C80.80705916 27.77497003 79.07725329 26.55018308 77.375 25.2890625 C63.44875225 15.27957193 45.65000965 7.9188642 28.625 5.625 C27.75141846 5.50278076 26.87783691 5.38056152 25.9777832 5.25463867 C13.690229 3.63536507 1.30274203 2.93915773 -11.0625 2.1875 C-7.29547894 -0.32384737 -4.35644285 -0.07366633 0 0 Z " fill="#F91318" transform="translate(630.0625,342.8125)"/>
<path d="M0 0 C6.10559655 -0.02290553 12.21104516 -0.04283367 18.31665039 -0.05493164 C20.39543156 -0.05997288 22.47420916 -0.06680574 24.55297852 -0.07543945 C27.53402586 -0.08751422 30.51502649 -0.09323024 33.49609375 -0.09765625 C34.89921059 -0.10539818 34.89921059 -0.10539818 36.33067322 -0.11329651 C37.19149002 -0.11337204 38.05230682 -0.11344757 38.93920898 -0.11352539 C40.08171364 -0.11685631 40.08171364 -0.11685631 41.24729919 -0.12025452 C43 0 43 0 44 1 C44.101137 4.01808063 44.13968909 7.01280513 44.1328125 10.03125 C44.13376923 10.93750122 44.13472595 11.84375244 44.13571167 12.77746582 C44.13639353 14.69751047 44.13453882 16.61755741 44.13037109 18.53759766 C44.12502292 21.48735704 44.13031588 24.43696414 44.13671875 27.38671875 C44.13605797 29.24739617 44.13477681 31.1080735 44.1328125 32.96875 C44.13483673 33.85727661 44.13686096 34.74580322 44.13894653 35.66125488 C44.11494988 41.88505012 44.11494988 41.88505012 43 43 C39.89748799 43.08874135 36.8173188 43.11518455 33.71484375 43.09765625 C32.78402481 43.0962413 31.85320587 43.09482635 30.8941803 43.09336853 C27.90858809 43.08775172 24.92306971 43.0751964 21.9375 43.0625 C19.91862087 43.05748716 17.89974057 43.05292388 15.88085938 43.04882812 C10.92054428 43.03777683 5.96028468 43.02050095 1 43 C1 42.67 1 42.34 1 42 C14.53 42 28.06 42 42 42 C42 28.8 42 15.6 42 2 C28.8 2.33 15.6 2.66 2 3 C2 9.6 2 16.2 2 23 C1.71101874 28.34615332 1.41715662 33.66635463 1 39 C0.67 39 0.34 39 0 39 C0 26.13 0 13.26 0 0 Z " fill="#0564B1" transform="translate(349,561)"/>
<path d="M0 0 C12.59825943 0.21352982 23.49493021 7.98281044 32.5 16.3125 C33.325 17.199375 34.15 18.08625 35 19 C35.60585938 19.58910156 36.21171875 20.17820312 36.8359375 20.78515625 C49.56600975 33.83226095 53.35639961 51.21278988 53.30078125 68.91796875 C53 72 53 72 51 75 C50.97421875 73.88625 50.9484375 72.7725 50.921875 71.625 C50.30142102 52.82047155 46.65081153 34.02041834 33 20 C23.1423542 11.31840042 12.43556986 5.30462034 0 1 C0 0.67 0 0.34 0 0 Z " fill="#FB1017" transform="translate(647,413)"/>
<path d="M0 0 C0.495 0.99 0.495 0.99 1 2 C-9.71806237 17.33114783 -20.71463329 32.44074481 -32.0625 47.3125 C-32.58642334 47.99957031 -33.11034668 48.68664062 -33.65014648 49.39453125 C-36.67837977 53.34274034 -39.78851224 57.19924843 -43 61 C-43.66 60.67 -44.32 60.34 -45 60 C-41.23915701 54.73882071 -37.46547011 49.51126858 -33.375 44.5 C-23.76615864 32.61587527 -14.97183315 20.04022005 -6.0871582 7.61132812 C-5.57886475 6.90298828 -5.07057129 6.19464844 -4.546875 5.46484375 C-4.10182617 4.842146 -3.65677734 4.21944824 -3.19824219 3.57788086 C-2 2 -2 2 0 0 Z " fill="#F80D13" transform="translate(698,625)"/>
<path d="M0 0 C1.27746094 -0.01417969 2.55492187 -0.02835937 3.87109375 -0.04296875 C7.46531971 0.18143266 10.22446958 0.88221144 13.5625 2.1875 C13.5625 2.5175 13.5625 2.8475 13.5625 3.1875 C12.07363281 3.15269531 12.07363281 3.15269531 10.5546875 3.1171875 C-9.76665091 2.78215118 -27.03019544 6.61228698 -43.4375 19.1875 C-44.0975 18.8575 -44.7575 18.5275 -45.4375 18.1875 C-33.57907799 6.39883341 -16.63601239 0.08376643 0 0 Z " fill="#FA141B" transform="translate(632.4375,409.8125)"/>
<path d="M0 0 C0.66 0.33 1.32 0.66 2 1 C-0.33207122 2.87658856 -2.66543755 4.75151432 -5 6.625 C-5.68392822 7.17462402 -6.36785645 7.72424805 -7.07250977 8.29052734 C-10.6412174 11.14871346 -14.23194004 13.9446673 -17.9375 16.625 C-18.948125 17.40875 -19.95875 18.1925 -21 19 C-21 19.66 -21 20.32 -21 21 C-21.86371216 21.16193848 -21.86371216 21.16193848 -22.74487305 21.32714844 C-25.31071801 22.09270746 -26.92985465 23.17925405 -29.08203125 24.765625 C-29.84966797 25.32636719 -30.61730469 25.88710938 -31.40820312 26.46484375 C-32.20162109 27.05394531 -32.99503906 27.64304687 -33.8125 28.25 C-35.38142953 29.40115192 -36.95043886 30.55219508 -38.51953125 31.703125 C-39.27186035 32.25806641 -40.02418945 32.81300781 -40.79931641 33.38476562 C-43.84498686 35.62019448 -46.91992398 37.81228246 -50 40 C-50.66 39.67 -51.32 39.34 -52 39 C-34.12003307 24.98669038 -34.12003307 24.98669038 -25.5703125 18.85546875 C-22.68553046 16.77298931 -19.84194156 14.64054166 -17 12.5 C-11.37899056 8.26952823 -5.70252449 4.11973718 0 0 Z " fill="#F46418" transform="translate(335,427)"/>
<path d="M0 0 C-1.85872336 3.71744673 -7.77920937 4.56924055 -11.6015625 5.91796875 C-18.15380458 8.41792888 -23.94160552 11.64727552 -29.8125 15.4375 C-30.87005493 16.1190918 -30.87005493 16.1190918 -31.94897461 16.81445312 C-36.61428558 19.89935631 -40.81717636 23.28740228 -45 27 C-45.66 26.67 -46.32 26.34 -47 26 C-43.84287366 21.60059588 -40.35146719 18.76285425 -35.9375 15.75 C-35.25083252 15.27836426 -34.56416504 14.80672852 -33.85668945 14.32080078 C-24.514245 8.10503206 -11.52306126 -0.31143409 0 0 Z " fill="#FA1617" transform="translate(589,351)"/>
<path d="M0 0 C0.66 0 1.32 0 2 0 C0.58152726 3.874336 -1.26405102 7.18661122 -3.4375 10.6875 C-9.60322014 21.12179562 -10.97575039 31.50051196 -11.5625 43.4375 C-11.60568359 44.26443359 -11.64886719 45.09136719 -11.69335938 45.94335938 C-11.79838033 47.96209549 -11.89958559 49.98102951 -12 52 C-16.2656009 45.18523521 -14.47244032 34.16219197 -13 26.5625 C-10.70109003 17.65422385 -6.18864009 6.90947601 0 0 Z " fill="#FC1014" transform="translate(580,435)"/>
<path d="M0 0 C3.89933913 1.29977971 5.03154527 3.23106806 7.5625 6.4375 C11.68987374 12.13131459 11.68987374 12.13131459 17.8125 14.9375 C21.34061134 15.30115705 21.76705439 15.18000343 24.75 12.875 C26.23197701 10.98136271 27.71121624 9.08557912 29.1875 7.1875 C29.785625 6.465625 30.38375 5.74375 31 5 C31.66 5 32.32 5 33 5 C31.33452427 10.14783406 28.43268918 14.07062582 24.1875 17.4375 C20.64528604 18.34835502 17.45686914 18.00881395 14 17 C8.21492995 13.26380893 3.91602028 7.61561283 0 2 C0 1.34 0 0.68 0 0 Z " fill="#ED131B" transform="translate(620,682)"/>
<path d="M0 0 C0.66 0.33 1.32 0.66 2 1 C-4.0839541 6.08369085 -10.22899633 11.00175611 -16.6875 15.6015625 C-19.433975 17.56810903 -22.12374554 19.60377708 -24.8125 21.6484375 C-25.66585938 22.29208252 -26.51921875 22.93572754 -27.3984375 23.59887695 C-29.11799343 24.89677376 -30.83167706 26.20249149 -32.5390625 27.51635742 C-33.72628906 28.40738159 -33.72628906 28.40738159 -34.9375 29.31640625 C-35.64777344 29.85724854 -36.35804688 30.39809082 -37.08984375 30.95532227 C-37.72019531 31.30006592 -38.35054688 31.64480957 -39 32 C-39.99 31.67 -40.98 31.34 -42 31 C-41.34515625 30.52691406 -40.6903125 30.05382812 -40.015625 29.56640625 C-35.1484461 26.03976391 -30.30196086 22.49003551 -25.5 18.875 C-17.05036853 12.51542288 -8.52030436 6.26437839 0 0 Z " fill="#F56517" transform="translate(379,394)"/>
<path d="M0 0 C0.99 0.33 1.98 0.66 3 1 C2.29875 1.66644531 1.5975 2.33289063 0.875 3.01953125 C-5.56123528 9.2373963 -10.97691919 15.55893186 -16 23 C-16.33 22.01 -16.66 21.02 -17 20 C-15.57789225 17.77042428 -14.15239965 15.79731094 -12.5 13.75 C-12.04383301 13.17096924 -11.58766602 12.59193848 -11.11767578 11.99536133 C-7.67985804 7.6917541 -4.02701756 3.76438598 0 0 Z " fill="#F81719" transform="translate(537,380)"/>
<path d="M0 0 C0.66 0.33 1.32 0.66 2 1 C-5.69331655 7.52158898 -13.63939743 13.377528 -22 19 C-22.66 18.67 -23.32 18.34 -24 18 C-16.16329766 11.77736102 -8.08612123 5.89146909 0 0 Z " fill="#F36317" transform="translate(280,468)"/>
<path d="M0 0 C-2.55113126 2.55113126 -4.08639355 2.49832415 -7.625 3 C-11.31075605 3.55684084 -14.89894435 4.16018886 -18.5 5.125 C-22 6 -22 6 -26 6 C-26 5.34 -26 4.68 -26 4 C-8.14350797 -0.59225513 -8.14350797 -0.59225513 0 0 Z " fill="#F90E13" transform="translate(616,345)"/>
<path d="M0 0 C0.66 0.33 1.32 0.66 2 1 C0.37680325 2.31472947 -1.248615 3.62671662 -2.875 4.9375 C-3.77992188 5.66839844 -4.68484375 6.39929688 -5.6171875 7.15234375 C-9.11570398 9.86512784 -11.4749568 10.39203128 -15.95703125 10.359375 C-19.39815666 9.75405275 -20.95926572 7.67846374 -23 5 C-23 4.34 -23 3.68 -23 3 C-22.34 3 -21.68 3 -21 3 C-20.4225 3.825 -19.845 4.65 -19.25 5.5 C-17.24212724 8.266002 -17.24212724 8.266002 -14.2265625 8.40625 C-10.19539979 7.8986944 -8.30866233 6.48480962 -5.125 4 C-4.15820312 3.2575 -3.19140625 2.515 -2.1953125 1.75 C-1.47085938 1.1725 -0.74640625 0.595 0 0 Z " fill="#F16016" transform="translate(245,494)"/>
<path d="M0 0 C2.5 2.3125 2.5 2.3125 5 5 C5 5.99 5 6.98 5 8 C-4.57 7.67 -14.14 7.34 -24 7 C-24 6.67 -24 6.34 -24 6 C-11.625 5.505 -11.625 5.505 1 5 C0.67 3.35 0.34 1.7 0 0 Z " fill="#123C74" transform="translate(605,692)"/>
<path d="M0 0 C0.66 0.33 1.32 0.66 2 1 C-4.47398239 6.30315579 -11.08209501 11.28993703 -18 16 C-18.66 15.67 -19.32 15.34 -20 15 C-6.3667426 4.44191344 -6.3667426 4.44191344 0 0 Z " fill="#F56517" transform="translate(402,377)"/>
<path d="M0 0 C0.66 0 1.32 0 2 0 C3.56432787 1.69274284 5.05328572 3.45569852 6.5 5.25 C7.69109375 6.71179688 7.69109375 6.71179688 8.90625 8.203125 C10.58748034 10.44894762 11.88135899 12.4465803 13 15 C8.96879932 12.86085148 6.49162756 10.5231923 3.6875 6.9375 C2.64142578 5.62072266 2.64142578 5.62072266 1.57421875 4.27734375 C0 2 0 2 0 0 Z " fill="#F20D16" transform="translate(607,666)"/>
<path d="M0 0 C1.8125 1 1.8125 1 3.8125 4 C0.13839215 5.17571451 -3.35679183 5.07366746 -7.1875 5 C-2.7972561 0 -2.7972561 0 0 0 Z " fill="#1B76BE" transform="translate(449.1875,371)"/>
<path d="M0 0 C2.40072955 2.88087546 4.47291037 5.56404834 6 9 C5.34 9.66 4.68 10.32 4 11 C3.54625 10.38125 3.0925 9.7625 2.625 9.125 C1.02891081 6.94080167 1.02891081 6.94080167 -1 5 C-0.625 2.375 -0.625 2.375 0 0 Z " fill="#E91624" transform="translate(522,552)"/>
<path d="M0 0 C0.66 0.33 1.32 0.66 2 1 C-2.18461538 6.78461538 -2.18461538 6.78461538 -6.3125 7.875 C-7.6428125 7.936875 -7.6428125 7.936875 -9 8 C-6.14723863 5.06799526 -3.34920216 2.35684596 0 0 Z " fill="#1174C2" transform="translate(424,388)"/>
<path d="M0 0 C2.96404505 2.80804268 5.44499019 5.18315774 7 9 C4.36 8.67 1.72 8.34 -1 8 C-0.649375 7.236875 -0.29875 6.47375 0.0625 5.6875 C1.32360884 2.95240621 1.32360884 2.95240621 0 0 Z " fill="#1A4A85" transform="translate(533,600)"/>
<path d="M0 0 C-3.82517513 2.39073445 -7.59665524 2.55966552 -12 3 C-12 2.34 -12 1.68 -12 1 C-7.58774263 -0.47075246 -4.51718381 -1.36884358 0 0 Z " fill="#FB171A" transform="translate(602,348)"/>
<path d="M0 0 C0.66 0.33 1.32 0.66 2 1 C-0.60300565 4.90450847 -2.8328898 5.8798913 -7 8 C-7.99 8 -8.98 8 -10 8 C-6.7 5.36 -3.4 2.72 0 0 Z " fill="#196DB5" transform="translate(312,471)"/>
<path d="M0 0 C0.66 0 1.32 0 2 0 C0.8141763 3.37503669 -0.27573689 5.64722731 -3 8 C-3.66 7.67 -4.32 7.34 -5 7 C-4.21654285 5.82780457 -3.42297164 4.66236332 -2.625 3.5 C-2.18414063 2.8503125 -1.74328125 2.200625 -1.2890625 1.53125 C-0.65097656 0.77328125 -0.65097656 0.77328125 0 0 Z " fill="#F60F13" transform="translate(651,687)"/>
<path d="M0 0 C0.66 0 1.32 0 2 0 C1.25 6.75 1.25 6.75 -1 9 C-0.67 6.03 -0.34 3.06 0 0 Z " fill="#EE161F" transform="translate(502,435)"/>
<path d="M0 0 C4 1 4 1 6 4 C5.67 4.99 5.34 5.98 5 7 C3.35 4.69 1.7 2.38 0 0 Z " fill="#EB111E" transform="translate(585,640)"/>
<path d="M0 0 C4.875 4.625 4.875 4.625 6 8 C2.83884224 6.63016497 2.0072908 6.0109362 0 3 C0 2.01 0 1.02 0 0 Z " fill="#F60911" transform="translate(535,573)"/>
<path d="M0 0 C0.33 0.66 0.66 1.32 1 2 C0.22265625 3.7265625 0.22265625 3.7265625 -0.9375 5.625 C-1.618125 6.73875 -2.29875 7.8525 -3 9 C-3.75 7.3125 -3.75 7.3125 -4 5 C-2.0625 2.25 -2.0625 2.25 0 0 Z " fill="#F51116" transform="translate(517,405)"/>
<path d="M0 0 C0.99 0.33 1.98 0.66 3 1 C2.01 1 1.02 1 0 1 C0 0.67 0 0.34 0 0 Z " fill="#3F4B79" transform="translate(595,700)"/>
<path d="M0 0 C0.66 0 1.32 0 2 0 C1.67 0.66 1.34 1.32 1 2 C0.67 1.34 0.34 0.68 0 0 Z " fill="#676195" transform="translate(502,547)"/>
<path d="M0 0 C3 1 3 1 3 1 Z " fill="#626598" transform="translate(499,544)"/>
<path d="" fill="#566AA2" transform="translate(0,0)"/>
<path d="" fill="#5E69A1" transform="translate(0,0)"/>
<path d="M0 0 C3 1 3 1 3 1 Z " fill="#4F7DA7" transform="translate(296,480)"/>
<path d="M0 0 C2 1 2 1 2 1 Z " fill="#334C7E" transform="translate(586,701)"/>
<path d="M0 0 C2 1 2 1 2 1 Z " fill="#1477BD" transform="translate(296,701)"/>
<path d="" fill="#C03044" transform="translate(0,0)"/>
<path d="" fill="#C03A4D" transform="translate(0,0)"/>
<path d="M0 0 C2 1 2 1 2 1 Z " fill="#0A81D4" transform="translate(405,564)"/>
<path d="" fill="#AD3E5A" transform="translate(0,0)"/>
<path d="" fill="#5B68A0" transform="translate(0,0)"/>
<path d="" fill="#B74153" transform="translate(0,0)"/>
<path d="" fill="#F72D38" transform="translate(0,0)"/>
<path d="" fill="#6B7F9A" transform="translate(0,0)"/>
<path d="M0 0 C2 1 2 1 2 1 Z " fill="#D47D50" transform="translate(314,446)"/>
<path d="" fill="#60689D" transform="translate(0,0)"/>
<path d="M0 0 C2 1 2 1 2 1 Z " fill="#527DA7" transform="translate(361,432)"/>
<path d="" fill="#5B7CA5" transform="translate(0,0)"/>
<path d="M0 0 C2 1 2 1 2 1 Z " fill="#F52D35" transform="translate(598,423)"/>
<path d="M0 0 C2 1 2 1 2 1 Z " fill="#5380A8" transform="translate(394,408)"/>
<path d="" fill="#557CA7" transform="translate(0,0)"/>
<path d="M0 0 C2 1 2 1 2 1 Z " fill="#746E97" transform="translate(493,400)"/>
<path d="M0 0 C2 1 2 1 2 1 Z " fill="#687EA0" transform="translate(437,376)"/>
<path d="M0 0 C2 1 2 1 2 1 Z " fill="#EA2F32" transform="translate(685,352)"/>
<path d="M0 0 C2 1 2 1 2 1 Z " fill="#ED3D37" transform="translate(576,352)"/>
<path d="" fill="#F57D30" transform="translate(0,0)"/>
<path d="M0 0 C2 1 2 1 2 1 Z " fill="#F87F30" transform="translate(401,301)"/>
<path d="" fill="#424649" transform="translate(0,0)"/>
<path d="" fill="#0C5A98" transform="translate(0,0)"/>
<path d="" fill="#C33948" transform="translate(0,0)"/>
<path d="" fill="#C73645" transform="translate(0,0)"/>
<path d="" fill="#BE3848" transform="translate(0,0)"/>
<path d="" fill="#3A4A79" transform="translate(0,0)"/>
<path d="" fill="#0F5996" transform="translate(0,0)"/>
<path d="" fill="#0E5C98" transform="translate(0,0)"/>
<path d="" fill="#1773B7" transform="translate(0,0)"/>
<path d="" fill="#1578C4" transform="translate(0,0)"/>
<path d="" fill="#C93742" transform="translate(0,0)"/>
<path d="" fill="#434B78" transform="translate(0,0)"/>
<path d="" fill="#304D82" transform="translate(0,0)"/>
<path d="" fill="#194E86" transform="translate(0,0)"/>
<path d="" fill="#165088" transform="translate(0,0)"/>
<path d="" fill="#0E5390" transform="translate(0,0)"/>
<path d="" fill="#1675BC" transform="translate(0,0)"/>
<path d="" fill="#CB3743" transform="translate(0,0)"/>
<path d="" fill="#1574BA" transform="translate(0,0)"/>
<path d="" fill="#C83343" transform="translate(0,0)"/>
<path d="" fill="#E42B32" transform="translate(0,0)"/>
<path d="" fill="#C43344" transform="translate(0,0)"/>
<path d="" fill="#C73142" transform="translate(0,0)"/>
<path d="" fill="#58496F" transform="translate(0,0)"/>
<path d="" fill="#C13346" transform="translate(0,0)"/>
<path d="" fill="#4D4F78" transform="translate(0,0)"/>
<path d="" fill="#5F456F" transform="translate(0,0)"/>
<path d="" fill="#ED2830" transform="translate(0,0)"/>
<path d="" fill="#C23143" transform="translate(0,0)"/>
<path d="" fill="#BD3144" transform="translate(0,0)"/>
<path d="" fill="#554673" transform="translate(0,0)"/>
<path d="" fill="#BD334C" transform="translate(0,0)"/>
<path d="" fill="#BC354A" transform="translate(0,0)"/>
<path d="" fill="#BC3347" transform="translate(0,0)"/>
<path d="" fill="#0D7AC7" transform="translate(0,0)"/>
<path d="" fill="#B13752" transform="translate(0,0)"/>
<path d="" fill="#B9354C" transform="translate(0,0)"/>
<path d="" fill="#B7354E" transform="translate(0,0)"/>
<path d="" fill="#BB324C" transform="translate(0,0)"/>
<path d="" fill="#5F446F" transform="translate(0,0)"/>
<path d="" fill="#6D4068" transform="translate(0,0)"/>
<path d="" fill="#63426C" transform="translate(0,0)"/>
<path d="" fill="#6B436B" transform="translate(0,0)"/>
<path d="" fill="#E92A33" transform="translate(0,0)"/>
<path d="" fill="#C63246" transform="translate(0,0)"/>
<path d="" fill="#B4324C" transform="translate(0,0)"/>
<path d="" fill="#8B3D62" transform="translate(0,0)"/>
<path d="" fill="#5B4A78" transform="translate(0,0)"/>
<path d="" fill="#BA354B" transform="translate(0,0)"/>
<path d="" fill="#7A456D" transform="translate(0,0)"/>
<path d="" fill="#B7354E" transform="translate(0,0)"/>
<path d="" fill="#0983D4" transform="translate(0,0)"/>
<path d="" fill="#0983D5" transform="translate(0,0)"/>
<path d="" fill="#5C618B" transform="translate(0,0)"/>
<path d="" fill="#127CC8" transform="translate(0,0)"/>
<path d="" fill="#EA2930" transform="translate(0,0)"/>
<path d="" fill="#5D5586" transform="translate(0,0)"/>
<path d="" fill="#5D598B" transform="translate(0,0)"/>
<path d="" fill="#137ECC" transform="translate(0,0)"/>
<path d="" fill="#625B90" transform="translate(0,0)"/>
<path d="" fill="#157BC7" transform="translate(0,0)"/>
<path d="" fill="#B93B53" transform="translate(0,0)"/>
<path d="" fill="#EC2F37" transform="translate(0,0)"/>
<path d="" fill="#C43A4D" transform="translate(0,0)"/>
<path d="" fill="#645E90" transform="translate(0,0)"/>
<path d="" fill="#0B7FD2" transform="translate(0,0)"/>
<path d="" fill="#C0374B" transform="translate(0,0)"/>
<path d="" fill="#BB3C55" transform="translate(0,0)"/>
<path d="" fill="#167ECB" transform="translate(0,0)"/>
<path d="" fill="#BD3C53" transform="translate(0,0)"/>
<path d="" fill="#606299" transform="translate(0,0)"/>
<path d="" fill="#0C81D3" transform="translate(0,0)"/>
<path d="" fill="#636195" transform="translate(0,0)"/>
<path d="" fill="#646195" transform="translate(0,0)"/>
<path d="" fill="#C2394F" transform="translate(0,0)"/>
<path d="" fill="#476EA7" transform="translate(0,0)"/>
<path d="" fill="#6067A0" transform="translate(0,0)"/>
<path d="" fill="#F72931" transform="translate(0,0)"/>
<path d="" fill="#F32A36" transform="translate(0,0)"/>
<path d="" fill="#EA2F38" transform="translate(0,0)"/>
<path d="" fill="#9D4A6E" transform="translate(0,0)"/>
<path d="" fill="#B43E59" transform="translate(0,0)"/>
<path d="" fill="#67679C" transform="translate(0,0)"/>
<path d="" fill="#F42C36" transform="translate(0,0)"/>
<path d="" fill="#B2405B" transform="translate(0,0)"/>
<path d="" fill="#2F7DB8" transform="translate(0,0)"/>
<path d="" fill="#BA3E55" transform="translate(0,0)"/>
<path d="" fill="#EA2F36" transform="translate(0,0)"/>
<path d="" fill="#BC3C52" transform="translate(0,0)"/>
<path d="" fill="#417CAF" transform="translate(0,0)"/>
<path d="" fill="#E82F37" transform="translate(0,0)"/>
<path d="" fill="#0984D5" transform="translate(0,0)"/>
<path d="" fill="#4E7FA9" transform="translate(0,0)"/>
<path d="" fill="#A34867" transform="translate(0,0)"/>
<path d="" fill="#5B68A3" transform="translate(0,0)"/>
<path d="" fill="#AC415C" transform="translate(0,0)"/>
<path d="" fill="#AA445F" transform="translate(0,0)"/>
<path d="" fill="#B73F58" transform="translate(0,0)"/>
<path d="" fill="#5E7FA4" transform="translate(0,0)"/>
<path d="" fill="#5E6AA0" transform="translate(0,0)"/>
<path d="" fill="#5C7EA6" transform="translate(0,0)"/>
<path d="" fill="#61659C" transform="translate(0,0)"/>
<path d="" fill="#D27F50" transform="translate(0,0)"/>
<path d="" fill="#587CA5" transform="translate(0,0)"/>
<path d="" fill="#5A7AA4" transform="translate(0,0)"/>
<path d="" fill="#607BA2" transform="translate(0,0)"/>
<path d="" fill="#5D7DA1" transform="translate(0,0)"/>
<path d="" fill="#737F91" transform="translate(0,0)"/>
<path d="" fill="#815885" transform="translate(0,0)"/>
<path d="" fill="#567FA8" transform="translate(0,0)"/>
<path d="" fill="#D57D50" transform="translate(0,0)"/>
<path d="" fill="#F22E36" transform="translate(0,0)"/>
<path d="" fill="#D97F4B" transform="translate(0,0)"/>
<path d="" fill="#D57E54" transform="translate(0,0)"/>
<path d="" fill="#5C7DA4" transform="translate(0,0)"/>
<path d="" fill="#D67C4E" transform="translate(0,0)"/>
<path d="" fill="#D6794C" transform="translate(0,0)"/>
<path d="" fill="#577DA6" transform="translate(0,0)"/>
<path d="" fill="#687E9F" transform="translate(0,0)"/>
<path d="" fill="#4F83AB" transform="translate(0,0)"/>
<path d="" fill="#DF7D47" transform="translate(0,0)"/>
<path d="" fill="#F82C36" transform="translate(0,0)"/>
<path d="" fill="#F52B37" transform="translate(0,0)"/>
<path d="" fill="#D67E4D" transform="translate(0,0)"/>
<path d="" fill="#547DAA" transform="translate(0,0)"/>
<path d="" fill="#5280AD" transform="translate(0,0)"/>
<path d="" fill="#706394" transform="translate(0,0)"/>
<path d="" fill="#537EA9" transform="translate(0,0)"/>
<path d="" fill="#D37E50" transform="translate(0,0)"/>
<path d="" fill="#B5455A" transform="translate(0,0)"/>
<path d="" fill="#4682B6" transform="translate(0,0)"/>
<path d="" fill="#617EA3" transform="translate(0,0)"/>
<path d="" fill="#6E809A" transform="translate(0,0)"/>
<path d="" fill="#E92F38" transform="translate(0,0)"/>
<path d="" fill="#616CA2" transform="translate(0,0)"/>
<path d="" fill="#D47C4A" transform="translate(0,0)"/>
<path d="" fill="#EA2E37" transform="translate(0,0)"/>
<path d="" fill="#B4495F" transform="translate(0,0)"/>
<path d="" fill="#FA2933" transform="translate(0,0)"/>
<path d="" fill="#537EAB" transform="translate(0,0)"/>
<path d="" fill="#C04357" transform="translate(0,0)"/>
<path d="" fill="#F17E36" transform="translate(0,0)"/>
<path d="" fill="#F72C36" transform="translate(0,0)"/>
<path d="" fill="#F82B33" transform="translate(0,0)"/>
<path d="" fill="#D77F52" transform="translate(0,0)"/>
<path d="" fill="#667C9E" transform="translate(0,0)"/>
<path d="" fill="#6A6599" transform="translate(0,0)"/>
<path d="" fill="#FB2C36" transform="translate(0,0)"/>
<path d="" fill="#F08035" transform="translate(0,0)"/>
<path d="" fill="#F48033" transform="translate(0,0)"/>
<path d="" fill="#EA2C34" transform="translate(0,0)"/>
<path d="" fill="#D27A4D" transform="translate(0,0)"/>
<path d="" fill="#6E709B" transform="translate(0,0)"/>
<path d="" fill="#F17F34" transform="translate(0,0)"/>
<path d="" fill="#F47E33" transform="translate(0,0)"/>
<path d="" fill="#816A8B" transform="translate(0,0)"/>
<path d="" fill="#507CAB" transform="translate(0,0)"/>
<path d="" fill="#517BA7" transform="translate(0,0)"/>
<path d="" fill="#577DA5" transform="translate(0,0)"/>
<path d="" fill="#F37E35" transform="translate(0,0)"/>
<path d="" fill="#CF8052" transform="translate(0,0)"/>
<path d="" fill="#CA7D57" transform="translate(0,0)"/>
<path d="" fill="#F38234" transform="translate(0,0)"/>
<path d="" fill="#E14348" transform="translate(0,0)"/>
<path d="" fill="#6976A1" transform="translate(0,0)"/>
<path d="" fill="#547CA9" transform="translate(0,0)"/>
<path d="" fill="#5F7CA1" transform="translate(0,0)"/>
<path d="" fill="#D37D50" transform="translate(0,0)"/>
<path d="" fill="#6774A4" transform="translate(0,0)"/>
<path d="" fill="#4B7DB1" transform="translate(0,0)"/>
<path d="" fill="#697E9B" transform="translate(0,0)"/>
<path d="" fill="#F48135" transform="translate(0,0)"/>
<path d="" fill="#D77D4C" transform="translate(0,0)"/>
<path d="" fill="#DD654A" transform="translate(0,0)"/>
<path d="" fill="#667C9D" transform="translate(0,0)"/>
<path d="" fill="#EE413C" transform="translate(0,0)"/>
<path d="" fill="#ED2A33" transform="translate(0,0)"/>
<path d="" fill="#EC403A" transform="translate(0,0)"/>
<path d="" fill="#8B7588" transform="translate(0,0)"/>
<path d="" fill="#F58136" transform="translate(0,0)"/>
<path d="" fill="#CA735B" transform="translate(0,0)"/>
<path d="" fill="#CE7B52" transform="translate(0,0)"/>
<path d="" fill="#D7734C" transform="translate(0,0)"/>
<path d="" fill="#D17C4E" transform="translate(0,0)"/>
<path d="" fill="#D27555" transform="translate(0,0)"/>
<path d="" fill="#5F7FA6" transform="translate(0,0)"/>
<path d="" fill="#D87451" transform="translate(0,0)"/>
<path d="" fill="#D17F52" transform="translate(0,0)"/>
<path d="" fill="#DC7447" transform="translate(0,0)"/>
<path d="" fill="#D37655" transform="translate(0,0)"/>
<path d="" fill="#DA7C4A" transform="translate(0,0)"/>
<path d="" fill="#DF774B" transform="translate(0,0)"/>
<path d="" fill="#DF784A" transform="translate(0,0)"/>
<path d="" fill="#DD7649" transform="translate(0,0)"/>
<path d="" fill="#DF7C52" transform="translate(0,0)"/>
<path d="" fill="#D87C4B" transform="translate(0,0)"/>
<path d="" fill="#F47932" transform="translate(0,0)"/>
<path d="" fill="#EC2F35" transform="translate(0,0)"/>
<path d="" fill="#F96B38" transform="translate(0,0)"/>
<path d="" fill="#EB3133" transform="translate(0,0)"/>
<path d="" fill="#F03D36" transform="translate(0,0)"/>
<path d="" fill="#F02D30" transform="translate(0,0)"/>
<path d="" fill="#E87840" transform="translate(0,0)"/>
<path d="" fill="#F24036" transform="translate(0,0)"/>
<path d="" fill="#E8783F" transform="translate(0,0)"/>
<path d="" fill="#EA7A43" transform="translate(0,0)"/>
<path d="" fill="#EB793B" transform="translate(0,0)"/>
<path d="" fill="#F86134" transform="translate(0,0)"/>
<path d="" fill="#ED783B" transform="translate(0,0)"/>
<path d="" fill="#F07B3A" transform="translate(0,0)"/>
<path d="" fill="#ED3032" transform="translate(0,0)"/>
<path d="" fill="#F33834" transform="translate(0,0)"/>
<path d="" fill="#F13634" transform="translate(0,0)"/>
<path d="" fill="#F33433" transform="translate(0,0)"/>
<path d="" fill="#EE3133" transform="translate(0,0)"/>
<path d="" fill="#EF3232" transform="translate(0,0)"/>
<path d="" fill="#F03334" transform="translate(0,0)"/>
<path d="" fill="#EF3433" transform="translate(0,0)"/>
<path d="" fill="#F46832" transform="translate(0,0)"/>
<path d="" fill="#F77E31" transform="translate(0,0)"/>
<path d="" fill="#F68132" transform="translate(0,0)"/>
<path d="" fill="#F68032" transform="translate(0,0)"/>
<path d="" fill="#F27930" transform="translate(0,0)"/>
<path d="" fill="#F27A31" transform="translate(0,0)"/>
<path d="" fill="#EC7E31" transform="translate(0,0)"/>
</svg>
